<svg width="26" height="26" viewBox="0 0 18 18" fill="none" xmlns="http://www.w3.org/2000/svg">
<path fill-rule="evenodd" clip-rule="evenodd" d="M12.3343 10.0191L16.079 11.7212C17.0459 12.1607 17.6666 13.1248 17.6666 14.1868V14.9583C17.6666 16.4541 16.4541 17.6667 14.9583 17.6667H3.04165C1.54587 17.6667 0.333313 16.4541 0.333313 14.9583V14.1868C0.333313 13.1248 0.95407 12.1607 1.92093 11.7212L5.66565 10.0191C4.39808 9.02767 3.58331 7.48399 3.58331 5.75001C3.58331 2.75847 6.00844 0.333344 8.99998 0.333344C11.9915 0.333344 14.4166 2.75847 14.4166 5.75001C14.4166 7.48399 13.6019 9.02767 12.3343 10.0191ZM6.79135 10.6974L2.36922 12.7075C1.7891 12.9712 1.41665 13.5496 1.41665 14.1868V14.9583C1.41665 15.8558 2.14418 16.5833 3.04165 16.5833H14.9583C15.8558 16.5833 16.5833 15.8558 16.5833 14.9583V14.1868C16.5833 13.5496 16.2109 12.9712 15.6307 12.7075L11.2086 10.6974C10.5341 10.999 9.78662 11.1667 8.99998 11.1667C8.21334 11.1667 7.46587 10.999 6.79135 10.6974ZM8.99998 10.0833C11.3932 10.0833 13.3333 8.14324 13.3333 5.75001C13.3333 3.35678 11.3932 1.41668 8.99998 1.41668C6.60675 1.41668 4.66665 3.35678 4.66665 5.75001C4.66665 8.14324 6.60675 10.0833 8.99998 10.0833Z" fill="#f8f8ff"/>
</svg>
